<?xml version="1.0" encoding="UTF-8" standalone="no"?>
<!-- Created with Inkscape (http://www.inkscape.org/) -->

<svg
   xmlns:dc="http://purl.org/dc/elements/1.1/"
   xmlns:cc="http://creativecommons.org/ns#"
   xmlns:rdf="http://www.w3.org/1999/02/22-rdf-syntax-ns#"
   xmlns:svg="http://www.w3.org/2000/svg"
   xmlns="http://www.w3.org/2000/svg"
   xmlns:sodipodi="http://sodipodi.sourceforge.net/DTD/sodipodi-0.dtd"
   xmlns:inkscape="http://www.inkscape.org/namespaces/inkscape"
   width="159.75mm"
   height="159.75mm"
   viewBox="0 0 159.75 159.75"
   version="1.1"
   id="svg8"
   inkscape:version="0.92.3 (2405546, 2018-03-11)"
   sodipodi:docname="logo.svg">
  <defs
     id="defs2" />
  <sodipodi:namedview
     id="base"
     pagecolor="#ffffff"
     bordercolor="#666666"
     borderopacity="1.0"
     inkscape:pageopacity="0.0"
     inkscape:pageshadow="2"
     inkscape:zoom="0.35"
     inkscape:cx="612.04134"
     inkscape:cy="459.5"
     inkscape:document-units="mm"
     inkscape:current-layer="layer1"
     showgrid="false"
     inkscape:lockguides="true"
     showguides="false"
     inkscape:snap-global="true"
     fit-margin-top="0"
     fit-margin-left="0"
     fit-margin-right="0"
     fit-margin-bottom="0"
     inkscape:window-width="742"
     inkscape:window-height="409"
     inkscape:window-x="168"
     inkscape:window-y="282"
     inkscape:window-maximized="0" />
  <metadata
     id="metadata5">
    <rdf:RDF>
      <cc:Work
         rdf:about="">
        <dc:format>image/svg+xml</dc:format>
        <dc:type
           rdf:resource="http://purl.org/dc/dcmitype/StillImage" />
        <dc:title />
      </cc:Work>
    </rdf:RDF>
  </metadata>
  <g
     inkscape:label="Layer 1"
     inkscape:groupmode="layer"
     id="layer1"
     transform="translate(-20.666666,-47.413871)">
    <path
       style="opacity:1;fill:#3f51b5;fill-opacity:1;fill-rule:nonzero;stroke:#000000;stroke-width:1;stroke-miterlimit:4;stroke-dasharray:none;stroke-dashoffset:0;stroke-opacity:1"
       d="m 100.54167,47.913871 c -43.837605,0 -79.375004,35.537399 -79.375004,79.374999 0,23.49839 10.210996,44.61187 26.43795,59.1454 14.045366,12.57962 32.597833,20.2296 52.937054,20.2296 20.89061,0 39.89629,-8.07039 54.06937,-21.26353 15.56822,-14.4918 25.30562,-35.16449 25.30562,-58.11147 0,-43.8376 -35.53739,-79.374999 -79.37499,-79.374999 z"
       id="path897"
       inkscape:connector-curvature="0"
       sodipodi:nodetypes="sssssss" />
    <path
       style="opacity:1;fill:none;fill-opacity:1;fill-rule:nonzero;stroke:#000000;stroke-width:1;stroke-miterlimit:4;stroke-dasharray:none;stroke-dashoffset:0;stroke-opacity:1"
       d="m 155.26264,185.01139 -0.67053,-27.86284 c -1.3e-4,-36.32244 -23.94548,-45.73463 -53.48355,-45.73468 -29.538076,5e-5 -53.483431,9.41224 -53.483561,45.73468 l -0.208975,29.08652"
       id="path815"
       inkscape:connector-curvature="0"
       sodipodi:nodetypes="ccccc" />
    <circle
       style="opacity:1;fill:#cccccc;fill-opacity:1;fill-rule:nonzero;stroke:#000000;stroke-width:1;stroke-miterlimit:4;stroke-dasharray:none;stroke-dashoffset:0;stroke-opacity:1"
       id="path836"
       cx="100.09097"
       cy="79.852684"
       r="26.836309" />
    <path
       style="opacity:1;fill:#1a1a1a;fill-opacity:1;fill-rule:nonzero;stroke:#000000;stroke-width:1;stroke-miterlimit:4;stroke-dasharray:none;stroke-dashoffset:0;stroke-opacity:1"
       d="m 125.57424,69.318387 c -0.43663,-7.94e-4 -1.05088,2.102265 -1.24901,5.186246 l 0.26716,5.830136 -13.07672,13.077237 c -0.18042,-0.289753 -0.40294,-0.568729 -0.65577,-0.822171 -1.10683,-1.106681 -2.52646,-1.481257 -3.17087,-0.836642 -0.64461,0.644401 -0.20322,1.880291 0.90346,2.987117 1.00659,0.645493 1.46016,1.186281 2.76151,0.831919 0.14241,-0.142722 0.58128,-0.140089 0.62676,-0.36085 l 12.71085,-12.710334 0.2589,5.651852 c 0.16522,0.782434 0.42211,1.251998 0.62373,1.251601 0.26353,-3.320087 1.17294,-6.974877 1.15497,-10.493931 -0.0164,-3.220445 -0.53204,-9.590997 -1.15497,-9.59218 z"
       id="path880"
       inkscape:connector-curvature="0"
       sodipodi:nodetypes="ccccccccccccac" />
    <path
       style="opacity:1;fill:#000000;fill-opacity:1;fill-rule:nonzero;stroke:none;stroke-width:1.65487313;stroke-miterlimit:4;stroke-dasharray:none;stroke-dashoffset:0;stroke-opacity:1"
       d="m 47.416227,153.27581 v 33.02441 c 15.948253,12.75552 28.298931,16.22525 41.651343,19.96781 h 20.31248 c 17.21575,-2.56504 34.78441,-9.33228 46.13384,-22.00771 l -1.28471,-36.41138 C 150.65319,123.8433 134.19012,114.25085 111.51821,111.60249 H 90.136648 c -28.807769,3.67485 -41.329911,18.77078 -42.720421,41.67332 z"
       id="rect903"
       inkscape:connector-curvature="0"
       sodipodi:nodetypes="ccccccccc" />
  </g>
</svg>
